<svg width="22" height="20" viewBox="0 0 22 20" fill="none" xmlns="http://www.w3.org/2000/svg">
<path fill-rule="evenodd" clip-rule="evenodd" d="M16.0232 0.0234375C19.4306 0.0234375 22 2.80362 22 6.49041V13.5181C22 15.405 21.3328 17.1098 20.1203 18.3193C19.0326 19.4029 17.6215 19.9769 16.0395 19.9769H5.9574C4.37851 19.9769 2.96847 19.4039 1.87972 18.3193C0.667163 17.1098 0 15.405 0 13.5181V6.49041C0 2.80362 2.5694 0.0234375 5.97684 0.0234375H16.0232ZM16.0232 1.55832H5.97684C3.40335 1.55832 1.53488 3.63246 1.53488 6.49041V13.5181C1.53488 14.9947 2.04242 16.3137 2.96335 17.2315C3.7574 18.0246 4.79395 18.442 5.96047 18.442H16.0232C16.0252 18.44 16.0334 18.442 16.0395 18.442C17.2071 18.442 18.2426 18.0246 19.0367 17.2315C19.9586 16.3137 20.4651 14.9947 20.4651 13.5181V6.49041C20.4651 3.63246 18.5967 1.55832 16.0232 1.55832ZM17.6358 6.29477C17.9029 6.62323 17.8527 7.10621 17.5243 7.3743L12.9769 11.0703C12.4019 11.5267 11.7142 11.7549 11.0276 11.7549C10.3431 11.7549 9.66056 11.5287 9.08958 11.0764L4.50028 7.37635C4.16977 7.1103 4.1186 6.6263 4.38363 6.29681C4.6507 5.96835 5.13367 5.91616 5.46316 6.18119L10.0484 9.87719C10.6245 10.3336 11.4359 10.3336 12.0161 9.87309L16.5553 6.18323C16.8847 5.91412 17.3677 5.96528 17.6358 6.29477Z" fill="#7D8FAB"/>
</svg>
